<!-- Generated by IcoMoon.io -->
<svg version="1.1" xmlns="http://www.w3.org/2000/svg" width="1024" height="1024" viewBox="0 0 1024 1024">
<title></title>
<g id="icomoon-ignore">
</g>
<path d="M469.333 469.333v-115.2c0-25.6 17.067-42.667 42.667-42.667s42.667 17.067 42.667 42.667v115.2h128c25.6 0 42.667 17.067 42.667 42.667s-17.067 42.667-42.667 42.667h-128v119.467c0 25.6-17.067 42.667-42.667 42.667s-42.667-17.067-42.667-42.667v-119.467h-128c-25.6 0-42.667-17.067-42.667-42.667s17.067-42.667 42.667-42.667h128zM512 960c-247.467 0-448-200.533-448-448s200.533-448 448-448 448 200.533 448 448-200.533 448-448 448zM512 917.333c221.867 0 405.333-183.467 405.333-405.333s-183.467-405.333-405.333-405.333-405.333 183.467-405.333 405.333 183.467 405.333 405.333 405.333z"></path>
</svg>
