<?xml version="1.0" encoding="utf-8"?>
<!-- Generator: Adobe Illustrator 22.1.0, SVG Export Plug-In . SVG Version: 6.00 Build 0)  -->
<svg version="1.1" id="Layer_1" xmlns="http://www.w3.org/2000/svg" xmlns:xlink="http://www.w3.org/1999/xlink" x="0px" y="0px"
	 viewBox="0 0 24 24" style="enable-background:new 0 0 24 24;" xml:space="preserve">
<path id="path-1_1_" d="M12,2C7.6,2,4,5.3,4,9.4c0,1.4,0.4,2.7,1.2,3.8l6.3,8.5c0.1,0.2,0.3,0.3,0.6,0.3c0.2,0,0.4-0.1,0.6-0.3
	l6.3-8.5c0.8-1.2,1.2-2.5,1.2-3.8C20,5.3,16.4,2,12,2z M12,16c-3.9,0-7-3-7-6.6c0-3.6,3.1-6.6,7-6.6c3.9,0,7,3,7,6.6
	C19,13.1,15.9,16,12,16z"/>
</svg>
