<!-- Generated by IcoMoon.io -->
<svg version="1.1" xmlns="http://www.w3.org/2000/svg" width="1024" height="1024" viewBox="0 0 1024 1024">
<title></title>
<g id="icomoon-ignore">
</g>
<path fill="#000" d="M9.481 427.383h963.292v28.444c0 203.336-116.171 381.394-290.046 454.432v104.258h-387.728v-104.88c-169.007-76.736-285.517-250.023-285.517-453.81v-28.444zM67.223 484.272c10.555 175.275 118.066 319.928 266.907 380.268l17.758 7.202v85.887h273.951v-86.562l18.61-6.857c152.151-56.055 260.032-203.996 270.586-379.938h-847.812z"></path>
<path fill="none" stroke-linejoin="miter" stroke-linecap="butt" stroke-miterlimit="10" stroke-width="56.8889" stroke="#000" d="M322.37 884.698h72.935"></path>
<path fill="#000" d="M972.011 29.757c4.513 15.047-4.028 30.904-19.077 35.416l-471.768 141.454c-15.045 4.512-30.902-4.029-35.415-19.077-4.509-15.047 4.032-30.904 19.077-35.416l471.768-141.454c15.049-4.512 30.902 4.029 35.415 19.077z"></path>
<path fill="#000" d="M1014.352 220.727c1.714 15.616-9.557 29.663-25.175 31.375l-504.013 55.258c-15.614 1.712-29.662-9.559-31.376-25.175-1.71-15.616 9.561-29.663 25.175-31.375l504.017-55.258c15.614-1.712 29.662 9.559 31.372 25.175z"></path>
<path fill="#000" d="M346.013 130.329l17.769 22.211c14.020 17.526 19.827 40.151 19.827 60.823s-5.807 43.298-19.827 60.823c-4.108 5.134-7.363 14.234-7.363 25.285s3.255 20.151 7.363 25.285c14.020 17.526 19.827 40.151 19.827 60.824 0 20.67-5.807 43.296-19.827 60.822l-17.769 22.213-44.423-35.54 17.769-22.209c4.107-5.135 7.363-14.234 7.363-25.285 0-11.053-3.256-20.152-7.363-25.286-14.021-17.526-19.829-40.151-19.829-60.823s5.808-43.298 19.829-60.823c4.107-5.134 7.363-14.234 7.363-25.285s-3.256-20.15-7.363-25.285l-17.769-22.212 44.423-35.538z"></path>
<path fill="#000" d="M454.781 107.674l35.897 44.872c14.021 17.526 19.831 40.151 19.831 60.823s-5.81 43.297-19.831 60.823c-4.107 5.134-7.361 14.234-7.361 25.285s3.254 20.151 7.361 25.285c14.021 17.526 19.831 40.151 19.831 60.823s-5.81 43.296-19.831 60.822l-17.768 22.213-44.423-35.54 17.768-22.209c4.107-5.135 7.365-14.234 7.365-25.285s-3.258-20.151-7.365-25.285c-14.021-17.526-19.828-40.151-19.828-60.823s5.806-43.297 19.828-60.823c4.107-5.134 7.365-14.233 7.365-25.285s-3.258-20.151-7.365-25.285l-35.897-44.872 44.423-35.538z"></path>
<path fill="#000" d="M604.338 130.329l17.768 22.211c14.021 17.526 19.828 40.151 19.828 60.823s-5.806 43.298-19.828 60.823c-4.107 5.134-7.365 14.234-7.365 25.285s3.258 20.151 7.365 25.285c14.021 17.526 19.828 40.151 19.828 60.824 0 20.67-5.806 43.296-19.828 60.822l-17.768 22.213-44.423-35.54 17.768-22.209c4.107-5.135 7.361-14.234 7.361-25.285 0-11.053-3.254-20.152-7.361-25.286-14.021-17.526-19.831-40.151-19.831-60.823s5.81-43.298 19.831-60.823c4.107-5.134 7.361-14.234 7.361-25.285s-3.254-20.15-7.361-25.285l-17.768-22.212 44.423-35.538z"></path>
</svg>
